<?xml version="1.0" encoding="UTF-8"?>
<svg id="Layer_1" data-name="Layer 1" xmlns="http://www.w3.org/2000/svg" viewBox="0 0 383.37 355.79">
  <path d="M277.63,192.73c-1.49-.46-2.7-.5-3.88-1.5-4.86-4.13-9.09-11.07-9.78-17.54-.24-2.27-.14-4.59,1.01-6.55,1.23-2.1,2.98-3.75,4.96-5.17,2.61-1.86,5.24-3.55,8.1-5.03l3.87-1.56c3.06-1.23,5.7-2.47,7.39.08,1.1,1.66,2.62,3.15,3.31,5.06,1.39,3.84,1.34,7.88,1.02,11.9-.29,3.59-.74,6.99-1.7,10.46-.63,2.28-.79,4.58-.65,6.94.12,1.86-.62,3.35-2.32,4.15-1.82.85-3.91,1.05-5.88.44l-5.46-1.68Z"/>
  <path d="M311.5,192.69l-5.31,1.64c-2.23.69-4.49.53-6.5-.55-3.27-1.75-1-4.99-2.57-10.83-1.7-6.31-2.99-16.89-.59-22.65.94-2.25,2.64-4.08,4.19-5.94.57-.6,2.31-.48,3.01-.22l4.41,1.62c2.66.98,5.01,2.26,7.41,3.8,2.85,1.83,5.57,3.67,7.69,6.33,2.86,3.6,2.11,8.92.49,13.21-1.81,4.77-4.8,8.92-8.64,12.24-1.04.9-2.24.93-3.59,1.34Z"/>
  <path d="M82.69,94.24c-3.92,2.6-8.61,3.1-13.08,2.05-1.75-.41-3.43-.86-4.99-1.72-2.31-1.28-3.94-3.33-4.97-5.83-2.26-5.48-2.5-11.6-.75-17.3.98-3.19,4.63-5.51,7.66-7.04,3.41-1.73,8.98-1.48,13.15-1.16,1.55.12,3.1.61,4.11,1.8,4.84,5.78,3.81,15.97,2.77,23.48-.33,2.4-1.83,4.34-3.9,5.72Z"/>
  <path d="M119.36,85.31c-1.14,4.79-3.59,8.72-8.36,10.22-2.13.67-4.25,1.2-6.51,1.27-3.72.13-7.34-.94-10.17-3.2-2.15-1.72-3.06-3.9-3.29-6.56-.57-6.74-1.62-14.53,1.87-20.4.84-1.41,1.93-2.74,3.6-3.1,3.23-.69,10.31-.77,13.18.22,2.3.8,4.43,2.08,6.26,3.59s2.99,3.33,3.48,5.64c.87,4.08.9,8.25-.07,12.32Z"/>
  <path d="M302.2,30.34c-.31.57-.98,1.46-1.54,1.66h-12.14c-.64,0-1.29-.88-1.55-1.37l-2.13-3.89c-1.08-1.96-2.77-3.11-4.92-3.7-.71-.64-.94-1.82-1.18-2.79-1.11-4.62-1.01-9.46.98-13.74,1.1-2.36,2.81-4,5.23-4.79,2.23-.73,4.44-1.67,6.83-1.65l6.05.06c2.79.03,5.49,1.2,7.99,2.38,1.55.73,2.62,2.3,3.37,3.8,2.21,4.43,2.31,9.44,1.04,14.18-.22.81-.39,1.98-1.08,2.45-2.26.79-4.08,2.13-5.23,4.23l-1.71,3.16Z"/>
  <path d="M72.48,229.53c-.32,3.08-1.58,10.45-3.47,10.49-2.86.06-7.26-18.06-8.4-22.71l-4.32-17.61c-2.75-11.21-2.13-19.51,1.59-30.35l3.14-6.49,4.41,14.51,4.24,13.69c3.79,12.23,4.14,25.81,2.82,38.46Z"/>
  <path d="M111.3,237.03c-.56,1.34-1.25,2.52-2.5,3.05-1.93-1.15-2.71-5.48-3.1-8.17-1.09-7.55-1.2-15.01-.78-22.67.3-5.48,1.29-10.61,2.66-15.9l5.34-17.45,3.88-12.96,2.92,5.89c3.22,8.49,4.67,18.07,2.61,27.02l-3.63,15.76-3.2,12.56c-1.13,4.41-2.43,8.62-4.21,12.89Z"/>
  <path d="M321.53,117.05c-1.24,5.02-1.36,10-2.88,14.83-.88,2.68-3.25,4.67-4.79,6.96-.24.35-1.02.71-1.35.79l-3.54-9.46-3.71-9.45c-1.82-4.62-3.67-9.12-5.08-13.88-.38-1.27-.11-2.45.59-3.49l2.07-3.07,6.07-13.41c2.64,1.22,2.81,3.62,4.42,4.22l4.12,1.55,4.62-.32c2.2-.15,4.11-.87,6.08-2.12-.03,3.25-1.02,6.18-2.69,8.75-.98,1.51-1.48,3.04-1.6,4.88-.31,4.53-1.21,8.72-2.32,13.21Z"/>
  <path d="M276.45,139.79c-2.04-1.45-6.01-6.77-6.29-8.27l-2.64-14.28c-.85-4.58-2.08-8.85-2.36-13.52-.1-1.6-.55-3.07-1.39-4.4-1.73-2.76-2.88-5.75-2.89-9.16,2.14,1.5,4.36,1.94,6.76,2.27,2.21.31,4.26.35,6.34-.62,1.07-.36,2.39-.88,3.04-1.83.85-1.26,1.68-2.38,3.08-3.06l2.64,5.72,3.2,7.14c1.39,3.09,3.82,4.06,2.84,7.31-1.33,4.43-3.03,8.62-4.73,12.93l-3.79,9.6-3.81,10.17Z"/>
  <path d="M291.63,107.81c-1.48-3.89-2.65-7.19-4.77-10.48-3.19-4.96-5.57-10.16-7.26-15.8l-3.08-10.3-2.91-8.26-2.29-4.28c2.79-.85,5.68-1.7,8.59-1.39l6.03.64c1.71.18,3.11,1.25,4.49,2.19.83.57,1.49,1.33,1.77,2.36,1.68,6.22,1.24,14.8,1.12,21.54-.38,7.91-.69,15.5-1.69,23.78Z"/>
  <path d="M301.35,98.75c-1.63,2.64-2.71,5.37-3.5,8.37l-.38.46c-.09.1-.27-.36-.28-.53l-1.52-24.53c-.31-4.94-.32-18.11,1.73-21.08,1.93-2.8,5.18-3.51,8.32-3.88,4.08-.49,7.96-.35,11.97,1.18-1.4,2.09-2.55,4.39-3.34,6.91l-3.95,12.64-3.41,9.97c-1.61,3.69-3.54,7.06-5.63,10.5Z"/>
  <path d="M87.64,176.31l-.18.49c-.05.14-.48.17-.63.1l-2.43-1.05c-7.47-3.22-10.2-27.44-10.78-36.01.22-.36.93-.73,1.33-.72l7.95.12c1.48.02,2.89.4,4.32.84.55.17.94.86.94,1.48l-.1,21.2-.42,13.54Z"/>
  <path d="M96.43,173.22c-1.18,1.78-2.73,2.66-4.58,3.34-.49.18-.96.5-1.54.25l-.41-11.42-.16-23.83c0-.65.41-1.28,1.02-1.48,1.48-.49,2.99-.82,4.55-.84l7.7-.1c.35,0,1.03.42,1.28.71l-1.43,12.55c-.48,4.17-1.43,8.08-2.58,12.09-.89,3.09-2.04,6.04-3.84,8.74Z"/>
  <path d="M267.33,251.46c-.88,1.95-1.64,3.6-3.13,5.28l1.45-11.58c.96-5.52,1.64-10.83,1.68-16.45l.09-15.18.31-17.35c.04-2.13.62-6.24,1.77-6.42.3-.05.89.26,1.12.52,2.56,2.91,4.66,6.06,5.54,9.87l-.66,10.43-.68,15.02c-.12,2.7-.7,5.14-1.38,7.74-1.62,6.2-3.44,12.19-6.11,18.11Z"/>
  <path d="M324.89,256.94c-2.07-2.74-3.38-5.57-4.56-8.64-2.34-6.1-4.25-12.25-5.58-18.68-.65-3.13-.74-6.21-.87-9.41l-.62-15.73-.33-4.52c-.15-2.09,4.85-10.31,6.51-10.18.94.07,1.64,2.94,1.69,4.55l.43,13.18.22,23.47c.05,4.79.93,9.19,1.54,13.89l1.55,12.06Z"/>
  <path d="M291.15,155.11l-13.38-8.59c-.58-.37-1.03-.96-.9-1.73.39-2.33.94-4.44,1.75-6.69,2.8-7.8,5.8-15.42,9.4-22.86l2.07-3.91c.89,1.8,1.04,3.38,1.25,5.27,1.12,9.71,1.34,19.39.97,29.16-.12,3.14-.43,5.95-1.16,9.36Z"/>
  <path d="M312.1,144.43c.19,1.04-.22,1.67-.91,2.12l-13.29,8.56c-.97-4.04-1.19-8-1.31-12.15-.26-8.95.1-17.78,1.11-26.65l1.2-5.02,2.21,4.17c3.51,7.36,6.51,14.86,9.27,22.57.76,2.12,1.3,4.12,1.72,6.4Z"/>
  <path d="M268.22,301.23c-1.84.47-3.13-.37-3.62-1.94-3.03-9.78-3.28-23.12-1.37-33.25.79-3.38,1.57-6.73,3.66-9.51l5.06-6.71-.66,13.06-.25,8.64-.14,22.38c-.01,1.65.27,3.16-.32,4.71-.42,1.08-1.19,2.32-2.37,2.62Z"/>
  <path d="M324.59,298.77c-.36,1.26-1.05,2.22-1.97,2.45-1.25.32-2.4.06-3.23-.9-1.06-1.23-1.37-2.98-1.36-4.68l.11-15.31-1.12-30.51,5.14,6.79c2.1,2.77,2.9,6.17,3.61,9.56,2.02,9.58,1.55,23.02-1.19,32.6Z"/>
  <path d="M55.79,72.18c.18,3.02.17,6.11-1.72,8.39l-3.42,4.12c-.86,1.03-1.87,1.47-3.19.72-1.83-1.05-3.53-2.47-4.78-4.21-3.58-4.97-2.78-11.42,1.58-15.62,2.02-1.94,3.92-3.83,6.41-5.2,3.68-2.02,7.97-1.71,11.57.35,1.27.73,2.17,1.59,2.32,3.2l-2.41,1.05-3.7,1.87c-1.99,1-2.81,3.09-2.67,5.33Z"/>
  <path d="M124.36,81.28c-1.34-1.54-2.25-3.22-2.26-5.24l-.02-4.29c-.03-4.68-4.49-6.05-8.66-7.65-.2-1.62.88-2.57,2.12-3.31,4.02-2.37,8.74-2.41,12.66.19,1.9,1.26,3.5,2.73,5.16,4.32,2.59,2.48,4.24,5.76,4.07,9.45-.2,4.47-2.79,8.17-6.59,10.4-.81.48-2.15,1.1-2.92.22l-3.56-4.08Z"/>
  <path d="M280.68,295.53c-1.28,2.3-3.9,6.17-5.78,5.79-1.7-.34-1.74-3.88-1.64-6.33l.64-15.08-.42-17.89.31-11.87,3.92,9.12c1.61,3.11,2.82,6.18,3.5,9.65,1.04,5.36,1.64,10.67,1.84,16.14.14,3.77-.56,7.2-2.37,10.46Z"/>
  <path d="M314.04,301.29c-1.02.14-2-.7-2.62-1.38-2.62-2.9-4.47-6.41-5.18-10.31-.9-5.03.47-14.3,1.4-19.86.66-4.03,2.14-7.53,3.98-11.1l3.62-8.74.43,11.48-.48,7.49.51,24.82c.06,2.68.45,7.32-1.66,7.6Z"/>
  <path d="M100.53,15.73c-1.51-2.17.32-6.95-3.59-6.84-2.7.08-5.33-.17-8.02-.68-2.88.6-5.77.68-8.73.75-2.69.07-1.42,4.6-2.91,6.86-.99,1.5-1.61,2.91-1.69,4.77l-.27,6.13c-.02.38-.48.87-.85.91-.41-2.92-.74-5.44-1.41-8.19-1.08-4.47-.71-9.19,1.34-13.33.91-1.83,2.33-3.38,4.21-4.07,2.41-.88,4.76-1.8,7.34-1.97,2.02-.13,4.02-.12,6.05,0,2.4.14,4.61,1.05,6.84,1.78,1.83.59,3.14,1.86,4.18,3.48,2.31,3.62,2.72,8.61,1.98,12.94l-1.59,9.29c-1.18.13-1.16-4.07-1.13-6.47.02-2.16-.55-3.66-1.74-5.38Z"/>
  <path d="M20.77,166.99l.07-3.01,1.59-8.13,3.13-15.87c.5-2.55.88-4.82,1.03-7.44.11-1.88.09-4.14.98-5.83l3.22-6.05c1.18-2.21,3.42-5.79,5.54-5.83.51.75.76,1.82.81,2.75.29,5.46-.25,10.77-1.46,16.11l-7.28,18.16-4.36,11.41-2.09,4.08c-.09.17-.61.37-.77.3s-.42-.48-.42-.66Z"/>
  <path d="M155.48,156.01c.7,3.51,1.55,6.64,1.68,10.12.02.6-.13,1.37-.78,1.58-.8-.81-1.53-1.92-1.96-3.02l-4.21-10.91-7.83-19.88c-1.74-4.42-2.51-18.8-.66-19.08,1.29-.19,3.85,3.03,4.93,5.06l3.61,6.75c.98,1.83.91,4.23,1.04,6.28.16,2.4.49,4.47.95,6.8l3.23,16.29Z"/>
  <path d="M110.76,312.96c-.43,1.17-.92,1.99-1.56,3.03-.49-.63-.79-1.24-.8-2.03-.07-7.57.44-14.9,1.7-22.38l3.65-21.57,2.82-16.36c.21-1.2.08-2.24.97-3.34.23.41.42,1.01.45,1.53l.45,8.12c.19,3.47.51,6.74.31,10.28-.47,8.55-1.11,16.91-2.71,25.34-1.14,6.01-3.15,11.6-5.27,17.38Z"/>
  <path d="M68.55,315.97l-2.04-4.58c-1.72-5.03-3.59-9.92-4.56-15.23-1.88-10.28-2.89-20.61-2.83-31.06l.74-13.62c.02-.33.36-.91.64-1.16.5,1.09.6,1.97.78,3.05l2.24,13.23,4.38,25.81c1.22,7.2,1.63,14.27,1.57,21.56,0,.8-.22,1.42-.91,2.01Z"/>
  <path d="M310.62,248.87l-2.56-18.85c-.45-3.34-1.14-6.52-2.21-9.68-.79-2.33-1.38-4.5-1.17-7.05.27-3.16.86-6.28,1.93-9.3l3.01-5.56c1.24,2.04,1.73,3.96,1.89,6.2l2.05,29.79-.17,14.67c-.02,2.17-.38,4.18-1.41,6.27-.8-2.19-1.05-4.19-1.37-6.49Z"/>
  <path d="M278.49,248.16c-.34,2.5-.58,4.7-1.41,7.15-1.52-3.79-2.21-7.43-2.7-11.32-1.11-8.66-1.63-17.2-1.99-25.95l.17-13.44c1.05.63,1.31,1.47,1.61,2.35l1.96,5.58c1.55,6,2.24,12.2,1.76,18.41l-1.06,13.69Z"/>
  <path d="M232.02,186.09c-.78,2.85-4.02,3.13-7.08,2.27s-5.61-2.54-7.82-4.68c-1.36-1.31-1.99-2.94-1.65-4.85.46-2.55,2.06-4.51,4.22-5.92,1.56-1.02,3.05-2.37,5.01-2.56,3.04-.29,8.52,1.17,8.73,3.65.35,4.12-.34,8.14-1.41,12.09Z"/>
  <path d="M370.08,185.27c-2.69,2.02-5.62,3.42-8.87,3.55-2.36.09-3.95-1.29-4.48-3.46-.78-3.22-1.13-6.41-1.3-9.75-.09-1.75.53-3.21,2.25-3.99s3.72-1.18,5.76-1.34c2.27-.18,5.43,2.13,7.4,3.86s3.18,4.21,2.69,6.71c-.38,1.92-1.9,3.26-3.44,4.41Z"/>
  <path d="M166.81,183.22c-4.97,5.39-14.02,7.97-15.37,2.73-1-3.89-1.72-7.92-1.34-11.98.22-2.41,5.49-3.84,8.57-3.62,2.03.14,3.55,1.56,5.17,2.6,3.85,2.48,5.79,7.23,2.98,10.28Z"/>
  <path d="M26.51,185.73c-1.54,5.69-10.35,2.64-15.11-2.14-1.01-1.01-1.64-2.27-1.72-3.66.19-3.03,1.91-5.42,4.4-7.03,1.5-.97,2.95-2.3,4.84-2.51,2.33-.25,4.81.36,6.87,1.31,1.31.61,2.11,1.75,2.1,3.15-.01,3.71-.43,7.32-1.39,10.89Z"/>
  <path d="M255.94,79.36c-2.68,3.11-5.92,5.63-9.84,6.73v-13.08c.01-5.09,5.48-9.98,10.31-11.69,3.91-.71,6.06.28,9.12,2.59l-5.16,3.83c-2.36,2.13-3.33,5.36-3.49,8.52-.05,1.11-.13,2.16-.95,3.11Z"/>
  <path d="M342.86,86.1c-3.78-1.12-6.94-3.51-9.51-6.36-.8-.89-1.17-1.99-1.2-3.17-.09-2.77-.74-5.44-2.44-7.66-1.12-1.48-2.72-2.46-4.21-3.52l-2.04-1.45c6.06-4.76,10.33-3.15,15.62,1.46,1.65,1.43,2.81,3.43,3.5,5.51.56,1.68.35,3.41.34,5.14l-.06,10.06Z"/>
  <path d="M71.25,311.46l-.37-5.26-1.79-19.37-.42-7.75c.58-2.33,1.55-4.37,2.63-6.49l3.72-7.29,1.49,9.66c.61,3.97,1.03,7.84,1.07,11.83.04,3.11-.66,5.79-1.76,8.61l-2.77,9.97c-.49,2.04-.84,3.94-1.81,6.09Z"/>
  <path d="M278.37,85.78c-.8.92-3.49-.11-5.22-1.01l-4.84-2.5c-2.74-1.42-4.94-3.46-6.24-6.27l-2.6-5.65c3.95-2.32,7.84-4.12,12.03-5.78,1.97-.78,2.64,2.85,3.22,5.06l3.94,15.03c.07.27-.13.93-.3,1.13Z"/>
  <path d="M315.32,85.05c-1.6.84-3.95,1.53-4.73.71-.21-.22-.32-.89-.23-1.24l3.82-14.49c.52-1.96,1.33-6.2,3.05-5.55,4.31,1.64,8.25,3.46,12.27,5.86l-2.99,6.4c-1.05,2.24-2.97,3.98-5.19,5.14l-6.01,3.15Z"/>
  <path d="M106.56,311.42c-.68-1.56-1.07-3.31-1.51-5.13l-2.99-10.8c-.47-1.24-.36-2.5.25-3.7l-.59-1.53c1.6-1.21,3.47-1.97,5.37-2.27l3.5,5.22,4.72,6.07c1.1,1.41-2.3,2.68-4.83,3.16l-5.81,1.11Z"/>
  <path d="M98.21,228.95c-2.77-7.83-1.65-17.86.28-25.94,1.35-5.68,2.93-11.09,5.02-16.56,3.3-8.64,6.77-17.04,10.91-25.38-4.32,16.06-8.58,31.67-12.28,47.69l-3.11,14.62-.82,5.57Z"/>
  <path d="M78.99,201.33c2.18,8.71,3.63,19.22.66,27.65l-.82-5.53-3.44-16.17c-3.67-15.66-7.8-30.95-12.06-46.58,3.08,6.22,5.7,12.45,8.36,18.88,2.96,7.16,5.43,14.25,7.31,21.76Z"/>
  <path d="M104.58,160.33c-.18-.47-.17-1.22-.02-1.67.58-1.78.96-3.49,1.1-5.36l.92-12.41c.05-.66.25-1.78.65-2.17,3.09-1.8,5.52-3.91,8.18-6.55.52,1.33.76,2.72.82,4.16l.59,13.65-7.95,8.66c-1.05,1.14-2.62,1.76-4.29,1.68Z"/>
  <path d="M72.27,153.96c.25,3.26,1.66,5.24.95,6.33-1.8.24-3.43-.77-4.6-2.04l-7.58-8.27.69-14.69c.05-1.07.33-2.06.73-3.1,2.61,2.68,5.17,4.8,8.39,6.66l.57,3.96.84,11.16Z"/>
  <path d="M77.65,113.1l-3.85,1.96c-.9-3.25-1.51-6.22-1.6-9.51-.05-1.76.57-4.94,1.73-5.52l5.05-2.52,4.82-2.3c.8-.38,1.99-.61,2.63.2.89,1.13,1.1,2.68,1.13,4.13l.14,6.17c.03,1.52-.94,1.84-1.96,2.46l-8.09,4.92Z"/>
  <path d="M104.23,114.73c-.29.09-.93.13-1.13,0l-10.63-6.41c-.74-.45-1.81-.61-2.08-1.64-.42-1.61-.28-3.3-.19-4.99.12-2.44.08-5.89,1.75-6.67.47-.22,1.39-.17,1.89.07l5.84,2.79,3.76,1.85c2.53,1.24,2.32,5.89,1.98,9.08l-1.19,5.93Z"/>
  <path d="M141.07,112.58c-1.55,1.79-5.73-.44-6.99-2.57-2.35-3.98-3.93-8.35-4.71-12.9-.63-3.67.65-8.87,3.02-8.7,2.93.21,6.92,7.64,7.77,11.39.96,4.26.98,8.46.91,12.78Z"/>
  <path d="M44.62,108.6c-2.01,4.12-6.47,5.4-7.53,4.31-.76-.77-.19-9.92.67-13.34.94-3.74,4.96-11.38,7.99-11.15,2.33.18,3.32,5.31,2.71,8.96-.66,3.97-2.09,7.61-3.84,11.21Z"/>
  <path d="M98.1,195.22c-2.17.08-3.22-2.96-4.01-5.18,1.36-5.89,3.29-11.4,6.19-16.69,2.46-4.49,5.04-8.86,8.73-12.37l3.96-3.75c-.07,1.1-.32,2.07-.81,3.01-2.38,4.58-4.51,9.07-6.3,13.93l-5.85,15.92-1.91,5.12Z"/>
  <path d="M83.77,190.03c-.73,2.24-2.03,5.43-4.06,5.16l-4.63-12.82c-2.32-6.43-4.72-12.65-7.68-18.79-1.02-2.12-2.27-3.9-2.61-6.37l2.2,2.01c1.77,1.61,3.35,3.19,4.83,5.13,5.8,7.62,9.87,16.32,11.95,25.68Z"/>
  <path d="M358.81,167.44c-3.33-5.81-6.08-11.73-8.33-17.98-.81-2.25-1.24-4.45-1.18-6.84.1-4.33.49-8.6,1.71-12.77l2.11-4.99,3.62,26.28,2.37,13.15,1.24,4.74c-.71-.32-1.1-.84-1.53-1.6Z"/>
  <path d="M238.55,149.45c-1.85,5.09-3.97,9.81-6.45,14.52-.95,1.81-1.74,3.68-3.34,5.16l2.51-11.84,4.61-32.32c3,5.29,3.66,11.33,3.8,17.21.06,2.52-.24,4.8-1.13,7.26Z"/>
  <path d="M324.7,227.78l-.18-6.27-1-12.71c-.17-5.81.42-11.59,1.93-17.16l1.98-5.56c.29-.81.61-1.66,1.51-2.05.41,4.23.52,8.02.23,12.08l-1.84,25.61c-.32,4.48-1.18,8.73-2.93,12.94-.49-2.48.37-4.6.3-6.87Z"/>
  <path d="M264.35,223.99c-.18,2.32-.01,4.41.24,6.58.16,1.37.41,2.67.01,4.11-1.52-3.79-2.21-7.43-2.7-11.32-1.11-8.66-1.63-17.2-1.99-25.95l.17-13.44c1.05.63,1.31,1.47,1.61,2.35l1.96,5.58c1.55,6,2.24,12.2,1.76,18.41l-1.06,13.69Z"/>
  <path d="M340.63,124.95l-2.26-2.62c-2.7-3.13-.9-6.35-3.6-9.33-1.27-1.4-2.05-2.95-2.57-4.79l-1.05-3.68c-1.49-3.29-2.15-6.79-.9-10.31,1.45.86,2.56,1.78,3.64,2.85l4.53,4.5c1.37,1.35,1.1,3.47,1.2,5.31.16,3.05.84,5.9,1.43,8.88.6,2.99.96,5.93.45,8.91l-.3.53c-.06.1-.49-.13-.58-.23Z"/>
  <path d="M249.37,123.83l-1.46,1.53c-1.29-2.68-.39-7.7.32-10.96s1.17-6.22,1.26-9.49c.04-1.53.59-3.11,1.7-4.15l5.14-4.77c.74-.69,1.48-1.28,2.46-1.73,1.02,3.12.76,6.2-.48,9.1-.66,1.55-1.13,3.1-1.48,4.76-.97,4.51-4.22,5.1-4.34,9.24-.08,2.63-1.33,4.6-3.13,6.48Z"/>
  <path d="M134.61,119.26c-.39.28-1.38.07-1.7-.28-1.7-1.9-3.06-3.84-4.29-6.1-2.01-3.71-3.75-7.49-5.04-11.52l-1.42-4.43c-.72-2.26-1.18-4.48-1.09-6.87l1.74-7.27c.13-.13.44-.49.54-.4l.47.45,1.71,7.93,2.46,7.49c2.07,6.29,4.93,12.13,7.62,18.18.43.98-.07,2.13-1.02,2.81Z"/>
  <path d="M43.64,119.39c-1.61-.63-1.72-2.28-1.14-3.58l3.78-8.55c2.22-5.01,3.98-9.97,5.71-15.2l2.1-9.25.39-.44c.58-.65,2.12,5.38,2.3,8.54.15,2.52-.72,4.74-1.42,7.13-1.73,5.84-3.94,11.37-7.11,16.57-1.06,1.74-3.43,5.26-4.6,4.8Z"/>
  <path d="M113.2,259.8c-.72,1.93-2.99,2.44-4.61,1.34-4.32-2.93-4.81-9.74-3.94-14.87.09-.52.59-1.06,1.1-1.11l7.59-.68c.92-.08,1.93.36,2.48.95,1.61,1.71.32,6.49-.73,9.3l-1.9,5.06Z"/>
  <path d="M71.29,259.12c-.8,1.16-1.87,2.2-3.24,2.5-1.55.34-3.12-.77-3.62-2.25l-2.49-7.39c-.46-1.35-.6-2.76-.71-4.19-.12-1.61,1.04-3.17,2.77-3.25,2.7-.13,5.49.21,8.15.62.32.05.94.52,1,.81.85,4.24.66,9.5-1.85,13.14Z"/>
  <path d="M87.38,137.81c-4.11.06-8.01-.01-12.05-.42-.72-.07-1.36-.48-1.53-1.17-.71-2.87-.82-5.84-.21-8.69l7.23-1.46c2.29-.46,4.55-.53,6.91-.36.19.6.41,1.29.41,1.82l-.08,6.84c-.01,1.12-.28,2.16-.67,3.44Z"/>
  <path d="M102.52,137.39c-4.06.4-7.83.49-11.87.42-.43-.79-.77-1.69-.78-2.58l-.09-8.34c0-.3.36-1,.62-1.22,1.95-.11,4.24-.1,6.19.29l7.68,1.57c.65,2.91.54,5.8-.19,8.63-.17.66-.77,1.15-1.56,1.23Z"/>
  <path d="M115.72,317.21c-.8,3.41.26,4.9-.25,7.14-.34.12-.92-.29-1.12-.66-1.73-3.12-2.25-6.64-1.43-10.14l2.66-11.34c1.79-7.61,3.33-15.15,4.14-22.93l-.07-6.35-.57-11.97.36-.53c.08-.12.42.31.49.43.81,3.24,1.13,6.39,1.27,9.75l-.22,19.56c-.04,4.02-.76,7.77-1.68,11.69l-3.59,15.35Z"/>
  <path d="M309.72,53.64c.96.54,1.83.83,2.43,1.81-3.81.63-7.38.54-11.11.4l-3.01-.11c-.67-.02-1.44-.58-1.45-1.43l-.34-17.7c0-.4.33-1.2.68-1.34,2.23-.87,5.01-.42,4.9,1.34-.27,4.54.94,10.88,3.59,14.61l4.32,2.42Z"/>
  <path d="M62.89,324.56c-1.56-.81.22-3.26-.76-7.46l-3.39-14.49-1.45-7.85c-.94-9.54-1.02-18.96-.32-28.49l.94-5.23c.03-.17.31-.5.39-.59.11-.12.52.39.5.56l-.33,3.48c-.09,5.11-.66,10.07-.22,15.22.78,8.99,2.84,17.63,4.98,26.34l1.82,8.16c.78,3.5.03,7.29-2.16,10.36Z"/>
  <path d="M83.99,124.86c-3.56.19-6.84-.03-10.35-.47.01-2.39-.02-4.69.86-6.82.55-1.32,2.05-2.03,3.15-2.86l8.23-4.31c.85-.45,1.96.9,1.96,1.68l-.04,7.5c0,1.48.29,2.96-.27,4.41-.92.6-2.3.8-3.54.87Z"/>
  <path d="M104.26,124.38l-4.72.46c-2.75.27-5.42.13-8.16-.29-.72-.22-1.31-.81-1.31-1.61l-.06-10.26c-.08-1.23.68-2.32,1.9-2.37l8.2,4.39c4.31,2.31,3.96,4.55,4.15,9.68Z"/>
  <path d="M276.82,55.46c.48-.72,1.06-1.13,1.73-1.47l3.25-1.71c.84-.44,1.82-.93,2.31-1.76,2.35-3.99,3.24-9.26,3.12-13.93-.02-.68.43-1.36,1.11-1.52,2.18-.5,4.47-.18,4.44,1.53l-.34,17.66c-.02.89-.76,1.44-1.55,1.47l-2.99.12c-3.71.14-7.19.21-11.07-.39Z"/>
  <path d="M112.46,336.89l-4.37,2.88c-.82.54-1.29,1.43-1.92,2.39-2.87-4.96-2.17-10.46.03-15.5l1.83-2.95c.63-1.01,1.96-2.39,3.32-2.11,1.69.34,2.54,2.4,2.68,3.94.4,4.08,2.2,6.79,1.72,8.08-.55,1.47-2,2.41-3.3,3.26Z"/>
  <path d="M71.63,342.03c-.73-1.17-1.38-2.01-2.43-2.69l-4.45-2.89c-1-.65-2.01-1.52-2.59-2.58-.68-1.24,1.31-4.2,1.69-8.58.08-.95.56-1.8,1.06-2.59.69-1.07,1.84-1.55,3.02-.81.91.57,1.73,1.45,2.29,2.41l1.59,2.71c.84,2.06,1.44,4.23,1.73,6.44.31,2.39-.3,6.67-1.92,8.58Z"/>
  <path d="M25.11,167.37c-.65-.38-.66-1.22-.46-1.79l4.17-11.55,2.96-7.61,4.06-9.08c1.19-2.66,1.97-5.22,2.46-8.1.32-1.89.71-3.82,1.61-5.5.46-.85,1.83-.85,2.74-.68,1.66,6.24-1.89,14.36-5.45,19.71l-2.49,4.25c-2.7,5.59-5.04,11.19-7.34,16.96-.5,1.27-1.15,2.45-2.27,3.38Z"/>
  <path d="M153.25,167.03c.08.98-1.6-.08-2.81-3.14-2.44-6.14-4.91-12.07-7.85-17.97l-1.96-3.24-2.57-4.33c-1.89-3.18-4.29-11.36-2.86-15.19.87-.45,2.42-.2,2.86.75.81,1.76,1.23,3.65,1.55,5.57.5,2.97,1.39,5.62,2.63,8.36l3.75,8.32,3.16,8.08,3.96,10.93.15,1.87Z"/>
  <path d="M63.83,241.87c-1.06-.21-1.39-1.45-1.73-2.31l-2.8-7.14c-.74-1.88-1.78-3.47-2.31-5.47-1.43-5.4-2.11-10.82-2.54-16.41l-.72-9.49c-.06-.75.08-1.53.49-2.15,1.35,1.44,1.47,3.05,1.76,4.78,1.13,6.82,2.73,13.42,4.68,20.05l2.62,7.52c1.09,3.13,2.68,8.34.54,10.63Z"/>
  <path d="M116.48,237.71l-1.55,3.68c-.07.17-.48.44-.65.48-.91.2-1.27-1.83-1.24-3.76.05-3,1.09-5.55,2.11-8.35,3.18-8.69,5.31-17.6,6.85-26.72.27-1.57.4-2.95,1.76-4.16.33.84.45,1.71.38,2.59l-.62,7.11c-.25,6.48-1.04,12.76-2.84,18.98-.49,1.7-1.39,3.05-2.03,4.67l-2.18,5.48Z"/>
  <path d="M271.24,341.18c-.96-3.26-1.37-6.39-1.8-9.64l-1.93-14.62c-.43-3.28-1.13-6.32-2.3-9.37-.38-.99-.13-1.85.59-2.53.63-.59,1.38-.87,2.22-.82,1.93.13,2.89,1.37,3,3.18l1.53,26.19c-.18,2.52-.15,4.9-1.31,7.6Z"/>
  <path d="M318.13,340.39c-.02.12-.31.65-.39.56l-.41-.46-.86-6.29,1.52-26.88c.1-1.75,1.13-2.94,2.89-3.11,1.07-.1,1.93.3,2.58,1.07s.55,1.81.18,2.81c-.99,2.66-1.65,5.29-2.02,8.13l-1.77,13.51-1.71,10.66Z"/>
  <path d="M249.27,100.87c-2.12,2.56-2.75-3.64-2.53-7.35.76-5.35,5.1-9.06,9.58-12.26l1.87,10.96c.06.36-.2,1.03-.48,1.24l-5.96,4.42-2.47,2.98Z"/>
  <path d="M339.91,101.07l-2.72-3.2-5.19-3.87c-.44-.33-1.02-.85-1.24-1.34l1.93-11.36c4.75,3.39,9.5,7.53,9.65,13.42-.08,2.29-.28,6.25-1.39,6.75-.22.1-.82-.12-1.05-.39Z"/>
  <path d="M66.08,354.81l-4.5-.9c-2.13-.43-4.29-.65-6.07-1.94-.58-.42-.66-1.1-.23-1.64l4.65-5.93,3.43-5.14c1.89.24,3.92,1.04,5.4,2.34-.53.89-.52,1.55-.22,2.49.4,1.21-.07,2.69-.53,3.9l-1.33,3.52-.61,3.31Z"/>
  <path d="M112.06,354.78c-.93-.9-.5-2.44-.9-3.51l-1.72-4.54c-.47-1.24-.36-2.5.25-3.7l-.59-1.53c1.6-1.21,3.47-1.97,5.37-2.27l3.5,5.22,4.72,6.07c1.1,1.41-2.3,2.68-4.83,3.16l-5.81,1.11Z"/>
  <path d="M275.55,334.19l-1.04,6.87c-.85-10.29-1.18-20.54-1.04-30.94.02-1.52,0-3.31.65-4.58.58-1.13,2.61-.59,3.41-.06,1.12.74,1.38,2.07,1.29,3.5-.28,4.45-.5,8.78-1.25,13.2l-2.02,12.01Z"/>
  <path d="M315.63,317.31l-1.18,23.62-2.01-14.03c-1.6-6.48-2.22-12.92-2.19-19.63.63-2.02,2.74-2.92,4.73-2.02.32,1.3.54,2.6.56,3.96l.1,8.09Z"/>
  <path d="M318.62,159.65l-6.26-4.16-8.23-2.84,1.37-1.46c2.95-1.15,5.94-1.9,9.11-1.99,1.92-.06,3.58.53,4.72,2.14,2.56,3.62,4.48,7.69,5.06,12.3l-5.77-3.98Z"/>
  <path d="M277.48,155.09c-1.44.47-2.69,1.43-3.94,2.31l-8.86,6.2c.5-4.7,2.48-8.56,4.89-12.1.99-1.45,2.32-2.22,4.11-2.29,2.87-.1,5.6.54,8.33,1.41,1.21.38,2.18,1.02,2.85,2.07l-7.38,2.39Z"/>
  <path d="M314.53,88.74c-.96-.39-1.73-.9-1.94-1.9l4.23-1.1c4.18-1.08,7.81-3.93,10.57-7.24l1.52-2.84c1.02-1.91,3.19.78,1.46,7.05-1.11,4.04-4.45,6.7-8.6,7.22-2.48.31-4.85-.23-7.24-1.21Z"/>
  <path d="M276.14,86.73c.41.1.02,1.16-.37,1.36-2.09,1.05-4.24,1.84-6.62,1.94-2.96.11-5.77-.85-7.9-2.87-2.23-2.12-3.03-5.06-3.19-8.1-.07-1.33-.25-2.76.87-3.82.28-.27,1.16.22,1.33.65.94,2.43,2.49,4.23,4.55,5.8,2.32,1.78,4.78,3.4,7.66,4.13l3.68.92Z"/>
  <path d="M105.13,238.1c.24,2.5-2.1,5.54-3.71,5.15-.45-.11-.95-.9-.92-1.46.07-1.48.06-2.83-.16-4.31-.58-3.77-.87-7.39-.58-11.23.57-5,1.75-9.88,4.1-14.44-.41,6.91-.31,13.24.65,19.81l.62,6.46Z"/>
  <path d="M77.74,235.92c-.59,3.75-.03,6.79-1.1,7.25-1.51.64-3.6-1.96-3.77-3.8-.19-2.1,0-4.13.31-6.24,1.05-7.07,1.31-13.89.84-21.27,1.12,1.92,1.68,3.86,2.37,5.9,1.88,5.92,2.32,12.01,1.35,18.16Z"/>
  <path d="M316,146.19l-2.66-1.65c-.45-.41-.73-1.24-.42-1.85,1.16-2.26,4.43-7.21,5.96-7.85,1.19-.49,2.49.86,2.95,1.87,1.78,3.85,1.48,10.76.23,15.29-1.84-2.64-3.51-4.5-6.06-5.81Z"/>
  <path d="M273.99,145.66c-3.01,1.42-5.05,3.43-7.06,6.36-1.21-4.75-1.42-10.16-.14-14.48.51-1.11,1.12-2.06,2.2-2.62.59-.31,1.53-.23,1.93.33l4.56,6.23c.46.63.63,1.43.86,2.26-.68.73-1.4,1.48-2.35,1.93Z"/>
  <path d="M235.29,162.73c-1.08,1.57-1.55,3.33-3.29,4.53,2.74-5.51,5.09-11.02,7.11-16.93l5.7-16.7c.78-2.28,3.04-3.54,5.51-2.85l-5.15,12.26-6.87,13.58-3,6.12Z"/>
  <path d="M357.14,167.44c-.88-.56-1.5-1.34-1.97-2.24l-4.33-8.35-6.87-13.6c-2.03-4.02-3.6-8.13-5.22-12.47,2.59-.65,4.69.58,5.5,2.93l5.1,14.94c2.22,6.49,4.61,12.64,7.78,18.79Z"/>
  <path d="M311.26,343.24l-.1-8.02c1.98,2.18.75,5.83,2.88,7.56,1.15.94,2.9,1,4.17.16.5-.34.85-1.35.98-1.96l1.08-5.24c.16-.76.93-1.54,1.47-2.25.18.23.4.76.39.99l-.42,9.67c-.12,2.8.11,5.76-2.33,5.65l-5.86-.26c-.51-.02-1.34-.56-1.48-1.08-.47-1.73-.75-3.35-.78-5.21Z"/>
  <path d="M277.84,341.24c-.05,2.37-.22,4.59-.7,6.73-.26,1.16-1.1,1.54-2.16,1.59l-5.01.22c-.5.02-1.72-.14-1.94-.59-.54-1.1-.6-2.34-.65-3.54l-.42-10.56c-.02-.49.07-1.08.25-1.58,1.22,1.09,1.65,2.42,1.96,3.94l.82,4.07c.25,1.24,1.22,1.87,2.4,1.97,1.37.12,2.66-.31,3.35-1.63,1.17-2.24.38-5.08,2.23-6.63l-.13,6.01Z"/>
  <path d="M345.14,120.47l-3.73-10.47c-.63-1.91-.83-3.79.03-5.62l3.09-6.53c1.73,5.83,2.64,11.38,2.88,17.19.23,2.72-1.02,6.46-1.66,5.93l-.6-.5Z"/>
  <path d="M243.99,120.17c-.13.38-.39.75-.6.81-1,.28-1.77-2.93-1.74-5.31.09-6.04,1.08-11.92,2.86-17.88l3.04,6.54c.91,1.95.68,3.88-.03,5.89l-3.54,9.95Z"/>
  <path d="M286.77,219.27c-.21-1.48.29-2.69.41-4.07.54-6.47-1.44-12.82-5.4-18.01l6.64-.84c.82-.1,1.87.12,2.59.48.39,1.36.35,2.62.17,4.03-.81,6.3-2.22,12.44-4.41,18.41Z"/>
  <path d="M302.27,219.02c-2.07-4.87-3.07-10.14-4.05-15.39l-.5-5.83c.16-.84.71-1.4,1.58-1.42,2.64-.07,5.14.23,7.91.78-1.85,2.42-3.19,4.88-4.03,7.72-1.82,4.55-1.6,8.94-.93,14.13Z"/>
  <path d="M224.54,168.6l3.38-12.44,2.97-16.63,1.48-8.59.51-2.61c.81.51,1.01,1.16.95,2.05-.63,8.58-1.59,16.99-3.2,25.43-.58,3.01-1.61,5.69-2.75,8.46-.9,1.57-1.64,3.2-3.34,4.34Z"/>
  <path d="M364.45,168.54c-3.45-2.33-5.55-9.78-6.32-14.08-1.4-7.8-2.28-15.51-2.89-23.39-.08-1.05-.24-2.02.91-2.83l.54,2.95,1.38,8.06,3.06,17.21,3.31,12.07Z"/>
  <path d="M89.74,54.94c-.12.31-.44.65-.65.71s-.78-.24-.86-.45l-1.76-4.68-2.28-5.45c-.48-1.16-.7-1.85-2.08-2.51,2.5-.13,4.57.31,6.84.71,2.27-.42,4.38-.84,6.87-.7-1.23.67-1.83,1.2-2.11,2.46s-1.09,2.4-1.54,3.58l-2.43,6.33Z"/>
  <path d="M109.51,267.76c.95,2.03,2.26,6.95,1.09,7.49-.94.43-3.95-5.99-5-8.33-2.21-4.89-3.99-9.85-5.4-15.02-.4-1.44.02-3.04.98-4.06.99.88,1.34,1.91,1.57,3.04.74,3.69,2.15,7.04,3.74,10.44l3.03,6.44Z"/>
  <path d="M67.12,275.24c-.8-.79.14-4.9.9-6.57l3.46-7.54c1.69-3.68,3.08-7.24,3.86-11.21.15-.75.74-1.5,1.39-2.03.86.98,1.33,2.43.97,3.79-1.98,7.43-4.79,14.46-8.42,21.24l-1.44,2.16c-.08.12-.62.26-.73.16Z"/>
  <path d="M91.67,62.51c-.8.42-1.19-2.98-.54-6.07.56-2.66,1.76-5.03,2.78-7.55l1.69-4.17c.63-1.55,1.72-2.85,3.05-3.92-.11,2.37.36,4.66-.16,6.85-.74,3.12-2.12,6-3.22,9-.89,2-1.86,3.77-3.07,5.57l-.53.28Z"/>
  <path d="M86.48,62.65c-.74-.42-1.22-.88-1.58-1.51-1.28-2.28-2.39-4.55-3.3-7.02-.76-2.07-1.66-4.08-2.17-6.22-.54-2.26-.14-4.67-.26-7.07,1.91,1.34,2.81,3.2,3.64,5.19l1.83,4.41c1.49,3.58,3.5,8.29,1.84,12.22Z"/>
  <path d="M107.34,136.91l-.25-6.34c-.03-.82.4-1.53.98-2.01l4.83-4.02,2.59-2.32.2,6.19c.05,1.51-.43,2.82-1.56,3.83-1.98,1.82-3.82,3.54-6.79,4.67Z"/>
  <path d="M70.75,130.86l-.13,6.1c-2.8-1.05-5.07-2.92-7.15-5.02-.8-.81-1.33-1.9-1.29-3.07l.19-6.62,2.53,2.26,5.52,4.6c.17.39.34,1.26.33,1.77Z"/>
  <path d="M326.1,353.85c-4.33.92-8.45,1.65-12.77,1.93-.93.06-2.03-.49-1.9-1.49.14-1.06.56-1.98,1.06-3.05l5.04-.61,11.04-.05c.4.33.71.64,1,1.05l-3.48,2.22Z"/>
  <path d="M277.91,354.55c-.04.9-1.11,1.29-1.88,1.24-4.19-.32-8.23-.9-12.31-1.88-1.53-.37-2.73-1.43-3.88-2.29.45-.87.96-1.03,1.76-1.03l10.61.1,4.6.58c.6,1.04,1.15,2.06,1.1,3.28Z"/>
  <path d="M82.76,214.27l-2.62-15.64c.13-.86.86-1.69,1.42-2.43l3.03-3.98c.13-.17.66-.33.74-.18l.37.72c-.3,5.65-.86,11.22-1.67,16.86-.31,1.6-.5,3.08-1.27,4.65Z"/>
  <path d="M97.57,199.62l-2.47,14.65c-.68-1.51-.91-2.88-1.23-4.4-.85-5.72-1.42-11.4-1.7-17.17l.37-.72c.08-.15.61.14.74.3l3.61,4.67c.65.84.86,1.53.67,2.66Z"/>
  <path d="M281.52,254.48c-.39,2-.8,3.73-1.62,5.44.83-6.6,1.14-12.88,1.16-19.44,0-2.96.76-5.81,1.42-8.63l1.64-7.02,1.51-7.9.65,5.64c-.08,4.36-2.77,10.5-3.04,15.54-.29,5.51-.65,10.84-1.73,16.36Z"/>
  <path d="M309.01,259.66c-1.05-2.36-1.44-4.94-1.95-7.57l-1.28-13.98c-.53-5.8-3.16-12.01-3.06-15.73l.67-5.16,1.28,6.72,2.83,12.44c.56,2.46.63,4.83.46,7.34l1.05,15.95Z"/>
  <path d="M107.23,128.28l-.27-6.61c-.04-.87.46-1.55,1.36-1.69l7.46-5.72c.33,4.13.75,5.99-2.34,8.65l-6.21,5.36Z"/>
  <path d="M70.57,128.17l-7.22-6.24c-.94-1-1.59-2.25-1.5-3.64l.27-4.01c2.93,2.41,5.49,4.51,8.61,6.37.33,2.45.28,4.81-.16,7.53Z"/>
  <path d="M30.79,162.11c-1.22,2.26-1.81,4.56-3.67,6.57,1.14-4.41,2.92-8.42,4.6-12.6,1.26-3.12,2.54-6.06,4.18-8.97l2.28-3.34c3.45-5.06,5.28-10.93,5.92-17.18.91.44,1.71,1.35,2.06,2.27-.51,2.06-1.41,3.84-2.26,5.76-1.22,2.76-2.35,5.43-3.8,8.09l-4.11,7.5-5.21,11.91Z"/>
  <path d="M145.75,159.02l-2.85-6.54-4.18-8.11c-1.53-2.97-3.09-5.73-4.35-8.82l-2.73-6.69c.56-.95,1.1-1.61,2.1-2.3.71,6.39,2.65,12.5,6.34,17.74,1.4,1.99,2.63,3.89,3.62,6.14,2.6,5.91,5.19,11.75,7.05,18.23-2.35-2.91-3.54-6.3-5-9.65Z"/>
  <path d="M77.16,60.1c-.49,2.2-6.83,1.14-9.96.43-.34-.08-.91-.56-1.1-.81,3.58-1.84,6.79-3.9,9.66-6.58.55-.51.97-.92,1.81-.82.36,2.69.17,5.19-.41,7.78Z"/>
  <path d="M111.82,59.75c-1.77,1.54-6.95,1.74-9.82,1.56-2.02-.13-1.98-5.88-1.71-8.84.54-.41,1.21.09,1.63.5,2.93,2.79,6.23,4.91,9.9,6.79Z"/>
  <path d="M346.98,135.88c-2.48-1.94-3.72-7.61-2.78-9.75.48-1.09,1.48-1.88,2.21-2.75l2.57-3.04-.39,5.73v5.91c0,1.41-.53,2.69-1.61,3.9Z"/>
  <path d="M242.22,135.82c-1.18-.85-1.77-2.28-1.77-3.75v-6.03s-.44-5.71-.44-5.71l4.28,4.94c1.75,2.02.52,7.95-2.07,10.55Z"/>
  <path d="M375.35,201.85c.34.89.47,1.89.42,2.79-1.4.22-2.44-.7-2.96-1.89l-5.53-12.79c-.51-1.17,1.42-1.69,3.27-1.38l2.78,8.03,2.02,5.24Z"/>
  <path d="M7.73,204.72c-.21-.67-.17-1.58.09-2.27l2.21-5.79,2.79-8.02c1.14-.35,2.53-.15,3.49.78l-5.91,13.62c-.43,1-1.35,1.59-2.67,1.68Z"/>
  <path d="M169.93,202.12c.3.8.37,1.77.28,2.52-1.71.18-2.48-.96-3.05-2.29l-5.59-12.88c.86-1,2.23-1.12,3.46-.9l3.37,9.54,1.53,4.01Z"/>
  <path d="M213.45,204.64c-.33-.63-.15-1.76.12-2.45l3.44-9.09,1.46-4.44c.99-.45,2.54-.12,3.48.77l-5.93,13.63c-.4.91-1.48,1.72-2.57,1.58Z"/>
  <path d="M66.1,109.21c-1.01-.73-1.67-1.52-2.24-2.51l2.16-2.3,4.59-3.72.13,7.08.09,3.46c0,.18-.21.53-.31.64s-.64.09-.78,0l-3.64-2.63Z"/>
  <path d="M107.36,119.09c-.41-2.01-.11-3.71.1-5.56l1.32-1.05,5.41-3.62,1.42,4.62c-2.69,2.15-5.11,3.92-8.25,5.61Z"/>
  <path d="M114.11,106.74c-1.87,2.42-7.16,6.72-7.09,4.47l.1-3.41.11-7.07c1.33.75,2.29,1.51,3.28,2.48l3.59,3.52Z"/>
  <path d="M70.2,113.3c.69,1.77.59,3.81.29,5.79-3.09-1.72-5.71-3.56-8.26-5.69l1.44-4.51,1.95,1.3,4.58,3.12Z"/>
  <path d="M209.39,199.35c-.14.2-.55.46-.7.4s-.35-.46-.36-.62c-.11-1.53.63-2.68,1.31-3.92l3.11-5.72,2.31-4.28c1.12.22,1.99.49,2.86,1.18.41.32.05,1.52-.31,1.86-1.07,1.03-1.78,2.07-2.62,3.25l-5.6,7.84Z"/>
  <path d="M3.58,199.55l-.47.19c-.42.17-.76-1.6.18-3.34l5.28-9.81c.25-.47.68-1.02,1.1-1.38.93.26,1.89.6,2.6,1.2.4.34.06,1.51-.31,1.87-1.1,1.06-2.06,2.36-2.94,3.72l-5.42,7.57Z"/>
  <path d="M380.58,199.77c-.56-.15-1-.43-1.32-.89l-5.09-7.19-2.68-3.37c-.34-.43-.81-1.41-.38-1.87.73-.77,1.7-1,2.81-1.26l2.04,3.67,4.17,7.63c.52.96.61,1.89.45,3.27Z"/>
  <path d="M174.8,199.94l-3.36-4.21-4.32-6.26-1.3-1.3c-.32-.32-.53-1.51-.18-1.8.73-.6,1.65-.88,2.73-1.2l2.11,3.8,4.11,7.47c.55,1.01.94,2.27.21,3.51Z"/>
  <path d="M71.3,354.87l-2.9.65c-.76-.52-.83-1.7-.51-2.5.93-2.32,1.24-4.5,1.39-6.97.07-1.24.74-2.57,1.43-3.84l2.22,5.88c.49,1.29-.53,2.54-.83,3.69-.26,1.02-.18,2.07-.79,3.08Z"/>
  <path d="M106.84,354.86c-1.11-.47-.64-1.95-.92-2.64l-.86-2.17c-.43-1.1-.04-2,.34-3.05l1.72-4.73c.7,1.12,1.38,2.51,1.45,3.8.15,2.5.53,4.68,1.42,7,.28.75.2,1.95-.57,2.39-.71-.07-1.91-.3-2.58-.59Z"/>
  <path d="M115.28,105.77c-1.82-1.39-3.15-2.72-4.64-4.28,2.51-1.07,4.9-1.74,7.07-3.19.79-.53,1.1-1.61,1.96-2.39l.38,2.33c-.67,2.32-3.7,8.34-4.76,7.53Z"/>
  <path d="M62.65,105.73c-.24.19-.98-.1-1.12-.3-1.54-2.27-2.93-4.5-3.62-7.22-.16-.62.22-1.81.35-2.35l1.76,2.44c2.32,1.34,4.57,2.15,7.19,3.2-1.41,1.62-3.03,3.06-4.56,4.24Z"/>
  <path d="M162.45,202.02c.16,1.05.33,2.23-.03,3.07-.35.42-1.64-.21-1.77-.82l-2.81-14.01,2.71-.46.89,5.61,1.01,6.61Z"/>
  <path d="M220.96,205.02c-.13-.64-.07-1.78.04-2.52l1.53-10.13.48-2.61,2.66.43-2.77,13.91c-.15.73-1.09,1.46-1.94.92Z"/>
  <path d="M367.93,205.11c-.61.46-1.67-.23-1.8-.9l-2.77-13.92c1.02-.36,1.78-.47,2.73-.41l2.03,13.09c.08.54.03,1.67-.18,2.13Z"/>
  <path d="M15.3,205.15l.07-2.9.72-4.66,1.23-7.77c1.09,0,1.79.13,2.68.54l-2.79,13.85c-.15.75-1.06,1.18-1.91.93Z"/>
  <path d="M383.36,185.63c-1.97.56-3.49-.31-4.83-1.52-1.61-1.45-2.77-3.05-3.43-5.21l-1.46-4.75c2.5,1.91,4.06,4.33,5.6,6.88l3.7,2.2c.5.3.45,1.68.42,2.4Z"/>
  <path d="M.02,185.61c-.05-.66-.07-1.93.42-2.36,1.17-1.03,2.9-1.27,3.79-2.5,1.67-2.3,3.01-4.83,5.5-6.54l-1.25,4.05c-.73,2.36-1.82,4.33-3.66,5.88-1.37,1.16-2.82,2.09-4.79,1.47Z"/>
  <path d="M205.76,185.62c-.72-3.05,1.9-2.91,4.22-4.76,1.32-2.56,3.02-4.74,5.41-6.7l-1.48,4.83c-.67,2.2-1.92,3.81-3.61,5.26-1.2,1.03-2.76,2.01-4.54,1.36Z"/>
  <path d="M177.85,185.59c-1.49.57-2.98-.04-4.16-.93-2.45-1.85-3.91-4.17-4.52-7.2l-.97-3.21c2.36,1.86,3.85,4.04,5.35,6.47.55.89,1.96,1.35,2.82,1.83,1.24.52,1.67,1.43,1.48,3.04Z"/>
  <path d="M66.56,96.73c.56.28,1.07.68,1.23,1.09.22.57.14,1.46-.38,1.87-2.68-.63-5.62-1.37-7.6-3.28-1.08-1.12-1.12-3.4-1-4.69.87-.53,1.37.35,1.82.81,1.73,1.75,3.72,3.09,5.92,4.2Z"/>
  <path d="M117.92,96.5c-2.01,1.87-4.8,2.56-7.39,3.18-.46-.2-.67-1.22-.5-1.71.14-.38.55-.79,1.05-1.1,2.59-1.32,4.88-2.88,6.81-5.07.3-.14.84-.21,1.18-.09.02,1.43.11,3.62-1.16,4.79Z"/>
  <path d="M62.55,107.68c-.02,1.87-.54,3.69-1.32,5.41-2.4-3.14-3.49-6.7-2.9-10.54l4.23,5.12Z"/>
  <path d="M116.6,113.07c-.74-1.77-1.17-3.49-1.38-5.31l4.28-5.12c.62,3.66-.37,7.25-2.9,10.43Z"/>
  <path d="M155.22,199.57c-.05.43-.33,1.07-.54,1.53-1.24-1.07-1.32-2.54-1.37-4.05l-.27-7.76,2.41.6c.15,3.28.17,6.37-.23,9.68Z"/>
  <path d="M228.96,201.09c-.29-.32-.62-.96-.68-1.49-.36-3.29-.33-6.35-.25-9.67l2.42-.68-.25,8.12c-.04,1.33-.17,2.43-1.25,3.71Z"/>
  <path d="M23.2,201.22c-.57-1.33-.76-2.57-.77-3.92l-.08-7.29,2.48-.73-.32,9.36c-.28.89-.53,1.57-1.31,2.58Z"/>
  <path d="M83.84,62.7c-4.86-2.02-5.71-4.15-5.26-9.05.07-.75.06-1.32.51-1.97l2.01,4.84,2.74,6.18Z"/>
  <path d="M360.73,199.62c-.06.54-.35,1.13-.66,1.57-.77-1.06-1.22-2.16-1.25-3.36l-.26-8.53,2.4.58c.09,3.3.13,6.36-.22,9.75Z"/>
  <path d="M99.33,54.3c.27,4.68-.66,6.37-5.33,8.45l3.48-7.92,1.37-3.22c.46,1.09.42,1.69.48,2.69Z"/>
  <path d="M72.5,325.62c-1.22-2.63-2.55-5.21-4.75-7.29.04-.24.1-.63.22-.69,1.43-.77,4.22,1.44,4.49,4.05.15,1.27.2,2.4.04,3.93Z"/>
  <path d="M105.39,325.54v-3.56c-.02-2.99,3.95-5.54,4.65-4.14.13.26-.14.8-.4,1.05-2.04,1.88-3.02,4.23-4.25,6.65Z"/>
</svg>
