<?xml version="1.0" encoding="UTF-8"?>
<svg id="Layer_1" data-name="Layer 1" xmlns="http://www.w3.org/2000/svg" viewBox="0 0 383.37 355.79">
  <path d="M277.63,192.73c-1.49-.46-2.7-.5-3.88-1.5-4.86-4.13-9.09-11.07-9.78-17.54-.24-2.27-.14-4.59,1.01-6.55,1.23-2.1,2.98-3.75,4.96-5.17,2.61-1.86,5.24-3.55,8.1-5.03l3.87-1.56c3.06-1.23,5.7-2.47,7.39.08,1.1,1.66,2.62,3.15,3.31,5.06,1.39,3.84,1.34,7.88,1.02,11.9-.29,3.59-.74,6.99-1.7,10.46-.63,2.28-.79,4.58-.65,6.94.12,1.86-.62,3.35-2.32,4.15-1.82.85-3.91,1.05-5.88.44l-5.46-1.68Z"/>
  <path d="M311.5,192.69l-5.31,1.64c-2.23.69-4.49.53-6.5-.55-3.27-1.75-1-4.99-2.57-10.83-1.7-6.31-2.99-16.89-.59-22.65.94-2.25,2.64-4.08,4.19-5.94.57-.6,2.31-.48,3.01-.22l4.41,1.62c2.66.98,5.01,2.26,7.41,3.8,2.85,1.83,5.57,3.67,7.69,6.33,2.86,3.6,2.11,8.92.49,13.21-1.81,4.77-4.8,8.92-8.64,12.24-1.04.9-2.24.93-3.59,1.34Z"/>
  <path d="M82.69,94.24c-3.92,2.6-8.61,3.1-13.08,2.05-1.75-.41-3.43-.86-4.99-1.72-2.31-1.28-3.94-3.33-4.97-5.83-2.26-5.48-2.5-11.6-.75-17.3.98-3.19,4.63-5.51,7.66-7.04,3.41-1.73,8.98-1.48,13.15-1.16,1.55.12,3.1.61,4.11,1.8,4.84,5.78,3.81,15.97,2.77,23.48-.33,2.4-1.83,4.34-3.9,5.72Z"/>
  <path d="M119.36,85.31c-1.14,4.79-3.59,8.72-8.36,10.22-2.13.67-4.25,1.2-6.51,1.27-3.72.13-7.34-.94-10.17-3.2-2.15-1.72-3.06-3.9-3.29-6.56-.57-6.74-1.62-14.53,1.87-20.4.84-1.41,1.93-2.74,3.6-3.1,3.23-.69,10.31-.77,13.18.22,2.3.8,4.43,2.08,6.26,3.59s2.99,3.33,3.48,5.64c.87,4.08.9,8.25-.07,12.32Z"/>
  <path d="M302.2,30.34c-.31.57-.98,1.46-1.54,1.66h-12.14c-.64,0-1.29-.88-1.55-1.37l-2.13-3.89c-1.08-1.96-2.77-3.11-4.92-3.7-.71-.64-.94-1.82-1.18-2.79-1.11-4.62-1.01-9.46.98-13.74,1.1-2.36,2.81-4,5.23-4.79,2.23-.73,4.44-1.67,6.83-1.65l6.05.06c2.79.03,5.49,1.2,7.99,2.38,1.55.73,2.62,2.3,3.37,3.8,2.21,4.43,2.31,9.44,1.04,14.18-.22.81-.39,1.98-1.08,2.45-2.26.79-4.08,2.13-5.23,4.23l-1.71,3.16Z"/>
  <path d="M72.48,229.53c-.32,3.08-1.58,10.45-3.47,10.49-2.86.06-7.26-18.06-8.4-22.71l-4.32-17.61c-2.75-11.21-2.13-19.51,1.59-30.35l3.14-6.49,4.41,14.51,4.24,13.69c3.79,12.23,4.14,25.81,2.82,38.46Z"/>
  <path d="M111.3,237.03c-.56,1.34-1.25,2.52-2.5,3.05-1.93-1.15-2.71-5.48-3.1-8.17-1.09-7.55-1.2-15.01-.78-22.67.3-5.48,1.29-10.61,2.66-15.9l5.34-17.45,3.88-12.96,2.92,5.89c3.22,8.49,4.67,18.07,2.61,27.02l-3.63,15.76-3.2,12.56c-1.13,4.41-2.43,8.62-4.21,12.89Z"/>
  <path d="M321.53,117.05c-1.24,5.02-1.36,10-2.88,14.83-.88,2.68-3.25,4.67-4.79,6.96-.24.35-1.02.71-1.35.79l-3.54-9.46-3.71-9.45c-1.82-4.62-3.67-9.12-5.08-13.88-.38-1.27-.11-2.45.59-3.49l2.07-3.07,6.07-13.41c2.64,1.22,2.81,3.62,4.42,4.22l4.12,1.55,4.62-.32c2.2-.15,4.11-.87,6.08-2.12-.03,3.25-1.02,6.18-2.69,8.75-.98,1.51-1.48,3.04-1.6,4.88-.31,4.53-1.21,8.72-2.32,13.21Z"/>
  <path d="M276.45,139.79c-2.04-1.45-6.01-6.77-6.29-8.27l-2.64-14.28c-.85-4.58-2.08-8.85-2.36-13.52-.1-1.6-.55-3.07-1.39-4.4-1.73-2.76-2.88-5.75-2.89-9.16,2.14,1.5,4.36,1.94,6.76,2.27,2.21.31,4.26.35,6.34-.62,1.07-.36,2.39-.88,3.04-1.83.85-1.26,1.68-2.38,3.08-3.06l2.64,5.72,3.2,7.14c1.39,3.09,3.82,4.06,2.84,7.31-1.33,4.43-3.03,8.62-4.73,12.93l-3.79,9.6-3.81,10.17Z"/>
  <path d="M291.63,107.81c-1.48-3.89-2.65-7.19-4.77-10.48-3.19-4.96-5.57-10.16-7.26-15.8l-3.08-10.3-2.91-8.26-2.29-4.28c2.79-.85,5.68-1.7,8.59-1.39l6.03.64c1.71.18,3.11,1.25,4.49,2.19.83.57,1.49,1.33,1.77,2.36,1.68,6.22,1.24,14.8,1.12,21.54-.38,7.91-.69,15.5-1.69,23.78Z"/>
  <path d="M301.35,98.75c-1.63,2.64-2.71,5.37-3.5,8.37l-.38.46c-.09.1-.27-.36-.28-.53l-1.52-24.53c-.31-4.94-.32-18.11,1.73-21.08,1.93-2.8,5.18-3.51,8.32-3.88,4.08-.49,7.96-.35,11.97,1.18-1.4,2.09-2.55,4.39-3.34,6.91l-3.95,12.64-3.41,9.97c-1.61,3.69-3.54,7.06-5.63,10.5Z"/>
  <path d="M87.64,176.31l-.18.49c-.05.14-.48.17-.63.1l-2.43-1.05c-7.47-3.22-10.2-27.44-10.78-36.01.22-.36.93-.73,1.33-.72l7.95.12c1.48.02,2.89.4,4.32.84.55.17.94.86.94,1.48l-.1,21.2-.42,13.54Z"/>
  <path d="M96.43,173.22c-1.18,1.78-2.73,2.66-4.58,3.34-.49.18-.96.5-1.54.25l-.41-11.42-.16-23.83c0-.65.41-1.28,1.02-1.48,1.48-.49,2.99-.82,4.55-.84l7.7-.1c.35,0,1.03.42,1.28.71l-1.43,12.55c-.48,4.17-1.43,8.08-2.58,12.09-.89,3.09-2.04,6.04-3.84,8.74Z"/>
  <path d="M267.33,251.46c-.88,1.95-1.64,3.6-3.13,5.28l1.45-11.58c.96-5.52,1.64-10.83,1.68-16.45l.09-15.18.31-17.35c.04-2.13.62-6.24,1.77-6.42.3-.05.89.26,1.12.52,2.56,2.91,4.66,6.06,5.54,9.87l-.66,10.43-.68,15.02c-.12,2.7-.7,5.14-1.38,7.74-1.62,6.2-3.44,12.19-6.11,18.11Z"/>
  <path d="M324.89,256.94c-2.07-2.74-3.38-5.57-4.56-8.64-2.34-6.1-4.25-12.25-5.58-18.68-.65-3.13-.74-6.21-.87-9.41l-.62-15.73-.33-4.52c-.15-2.09,4.85-10.31,6.51-10.18.94.07,1.64,2.94,1.69,4.55l.43,13.18.22,23.47c.05,4.79.93,9.19,1.54,13.89l1.55,12.06Z"/>
  <path d="M291.15,155.11l-13.38-8.59c-.58-.37-1.03-.96-.9-1.73.39-2.33.94-4.44,1.75-6.69,2.8-7.8,5.8-15.42,9.4-22.86l2.07-3.91c.89,1.8,1.04,3.38,1.25,5.27,1.12,9.71,1.34,19.39.97,29.16-.12,3.14-.43,5.95-1.16,9.36Z"/>
  <path d="M312.1,144.43c.19,1.04-.22,1.67-.91,2.12l-13.29,8.56c-.97-4.04-1.19-8-1.31-12.15-.26-8.95.1-17.78,1.11-26.65l1.2-5.02,2.21,4.17c3.51,7.36,6.51,14.86,9.27,22.57.76,2.12,1.3,4.12,1.72,6.4Z"/>
  <path d="M268.22,301.23c-1.84.47-3.13-.37-3.62-1.94-3.03-9.78-3.28-23.12-1.37-33.25.79-3.38,1.57-6.73,3.66-9.51l5.06-6.71-.66,13.06-.25,8.64-.14,22.38c-.01,1.65.27,3.16-.32,4.71-.42,1.08-1.19,2.32-2.37,2.62Z"/>
  <path d="M324.59,298.77c-.36,1.26-1.05,2.22-1.97,2.45-1.25.32-2.4.06-3.23-.9-1.06-1.23-1.37-2.98-1.36-4.68l.11-15.31-1.12-30.51,5.14,6.79c2.1,2.77,2.9,6.17,3.61,9.56,2.02,9.58,1.55,23.02-1.19,32.6Z"/>
  <path d="M55.79,72.18c.18,3.02.17,6.11-1.72,8.39l-3.42,4.12c-.86,1.03-1.87,1.47-3.19.72-1.83-1.05-3.53-2.47-4.78-4.21-3.58-4.97-2.78-11.42,1.58-15.62,2.02-1.94,3.92-3.83,6.41-5.2,3.68-2.02,7.97-1.71,11.57.35,1.27.73,2.17,1.59,2.32,3.2l-2.41,1.05-3.7,1.87c-1.99,1-2.81,3.09-2.67,5.33Z"/>
  <path d="M124.36,81.28c-1.34-1.54-2.25-3.22-2.26-5.24l-.02-4.29c-.03-4.68-4.49-6.05-8.66-7.65-.2-1.62.88-2.57,2.12-3.31,4.02-2.37,8.74-2.41,12.66.19,1.9,1.26,3.5,2.73,5.16,4.32,2.59,2.48,4.24,5.76,4.07,9.45-.2,4.47-2.79,8.17-6.59,10.4-.81.48-2.15,1.1-2.92.22l-3.56-4.08Z"/>
  <path d="M280.68,295.53c-1.28,2.3-3.9,6.17-5.78,5.79-1.7-.34-1.74-3.88-1.64-6.33l.64-15.08-.42-17.89.31-11.87,3.92,9.12c1.61,3.11,2.82,6.18,3.5,9.65,1.04,5.36,1.64,10.67,1.84,16.14.14,3.77-.56,7.2-2.37,10.46Z"/>
  <path d="M314.04,301.29c-1.02.14-2-.7-2.62-1.38-2.62-2.9-4.47-6.41-5.18-10.31-.9-5.03.47-14.3,1.4-19.86.66-4.03,2.14-7.53,3.98-11.1l3.62-8.74.43,11.48-.48,7.49.51,24.82c.06,2.68.45,7.32-1.66,7.6Z"/>
  <path d="M100.53,15.73c-1.51-2.17.32-6.95-3.59-6.84-2.7.08-5.33-.17-8.02-.68-2.88.6-5.77.68-8.73.75-2.69.07-1.42,4.6-2.91,6.86-.99,1.5-1.61,2.91-1.69,4.77l-.27,6.13c-.02.38-.48.87-.85.91-.41-2.92-.74-5.44-1.41-8.19-1.08-4.47-.71-9.19,1.34-13.33.91-1.83,2.33-3.38,4.21-4.07,2.41-.88,4.76-1.8,7.34-1.97,2.02-.13,4.02-.12,6.05,0,2.4.14,4.61,1.05,6.84,1.78,1.83.59,3.14,1.86,4.18,3.48,2.31,3.62,2.72,8.61,1.98,12.94l-1.59,9.29c-1.18.13-1.16-4.07-1.13-6.47.02-2.16-.55-3.66-1.74-5.38Z"/>
  <path d="M232.02,186.09c-.78,2.85-4.02,3.13-7.08,2.27s-5.61-2.54-7.82-4.68c-1.36-1.31-1.99-2.94-1.65-4.85.46-2.55,2.06-4.51,4.22-5.92,1.56-1.02,3.05-2.37,5.01-2.56,3.04-.29,8.52,1.17,8.73,3.65.35,4.12-.34,8.14-1.41,12.09Z"/>
  <path d="M370.08,185.27c-2.69,2.02-5.62,3.42-8.87,3.55-2.36.09-3.95-1.29-4.48-3.46-.78-3.22-1.13-6.41-1.3-9.75-.09-1.75.53-3.21,2.25-3.99s3.72-1.18,5.76-1.34c2.27-.18,5.43,2.13,7.4,3.86s3.18,4.21,2.69,6.71c-.38,1.92-1.9,3.26-3.44,4.41Z"/>
  <path d="M166.81,183.22c-4.97,5.39-14.02,7.97-15.37,2.73-1-3.89-1.72-7.92-1.34-11.98.22-2.41,5.49-3.84,8.57-3.62,2.03.14,3.55,1.56,5.17,2.6,3.85,2.48,5.79,7.23,2.98,10.28Z"/>
  <path d="M26.51,185.73c-1.54,5.69-10.35,2.64-15.11-2.14-1.01-1.01-1.64-2.27-1.72-3.66.19-3.03,1.91-5.42,4.4-7.03,1.5-.97,2.95-2.3,4.84-2.51,2.33-.25,4.81.36,6.87,1.31,1.31.61,2.11,1.75,2.1,3.15-.01,3.71-.43,7.32-1.39,10.89Z"/>
  <path d="M255.94,79.36c-2.68,3.11-5.92,5.63-9.84,6.73v-13.08c.01-5.09,5.48-9.98,10.31-11.69,3.91-.71,6.06.28,9.12,2.59l-5.16,3.83c-2.36,2.13-3.33,5.36-3.49,8.52-.05,1.11-.13,2.16-.95,3.11Z"/>
  <path d="M342.86,86.1c-3.78-1.12-6.94-3.51-9.51-6.36-.8-.89-1.17-1.99-1.2-3.17-.09-2.77-.74-5.44-2.44-7.66-1.12-1.48-2.72-2.46-4.21-3.52l-2.04-1.45c6.06-4.76,10.33-3.15,15.62,1.46,1.65,1.43,2.81,3.43,3.5,5.51.56,1.68.35,3.41.34,5.14l-.06,10.06Z"/>
  <path d="M71.25,311.46l-.37-5.26-1.79-19.37-.42-7.75c.58-2.33,1.55-4.37,2.63-6.49l3.72-7.29,1.49,9.66c.61,3.97,1.03,7.84,1.07,11.83.04,3.11-.66,5.79-1.76,8.61l-2.77,9.97c-.49,2.04-.84,3.94-1.81,6.09Z"/>
  <path d="M278.37,85.78c-.8.92-3.49-.11-5.22-1.01l-4.84-2.5c-2.74-1.42-4.94-3.46-6.24-6.27l-2.6-5.65c3.95-2.32,7.84-4.12,12.03-5.78,1.97-.78,2.64,2.85,3.22,5.06l3.94,15.03c.07.27-.13.93-.3,1.13Z"/>
  <path d="M315.32,85.05c-1.6.84-3.95,1.53-4.73.71-.21-.22-.32-.89-.23-1.24l3.82-14.49c.52-1.96,1.33-6.2,3.05-5.55,4.31,1.64,8.25,3.46,12.27,5.86l-2.99,6.4c-1.05,2.24-2.97,3.98-5.19,5.14l-6.01,3.15Z"/>
  <path d="M106.56,311.42c-.68-1.56-1.07-3.31-1.51-5.13l-2.99-10.8c-.47-1.24-.36-2.5.25-3.7l-.59-1.53c1.6-1.21,3.47-1.97,5.37-2.27l3.5,5.22,4.72,6.07c1.1,1.41-2.3,2.68-4.83,3.16l-5.81,1.11Z"/>
  <path d="M98.21,228.95c-2.77-7.83-1.65-17.86.28-25.94,1.35-5.68,2.93-11.09,5.02-16.56,3.3-8.64,6.77-17.04,10.91-25.38-4.32,16.06-8.58,31.67-12.28,47.69l-3.11,14.62-.82,5.57Z"/>
  <path d="M78.99,201.33c2.18,8.71,3.63,19.22.66,27.65l-.82-5.53-3.44-16.17c-3.67-15.66-7.8-30.95-12.06-46.58,3.08,6.22,5.7,12.45,8.36,18.88,2.96,7.16,5.43,14.25,7.31,21.76Z"/>
  <path d="M66.08,354.81l-4.5-.9c-2.13-.43-4.29-.65-6.07-1.94-.58-.42-.66-1.1-.23-1.64l4.65-5.93,3.43-5.14c1.89.24,3.92,1.04,5.4,2.34-.53.89-.52,1.55-.22,2.49.4,1.21-.07,2.69-.53,3.9l-1.33,3.52-.61,3.31Z"/>
  <path d="M112.06,354.78c-.93-.9-.5-2.44-.9-3.51l-1.72-4.54c-.47-1.24-.36-2.5.25-3.7l-.59-1.53c1.6-1.21,3.47-1.97,5.37-2.27l3.5,5.22,4.72,6.07c1.1,1.41-2.3,2.68-4.83,3.16l-5.81,1.11Z"/>
  <path d="M326.1,353.85c-4.33.92-8.45,1.65-12.77,1.93-.93.06-2.03-.49-1.9-1.49.14-1.06.56-1.98,1.06-3.05l5.04-.61,11.04-.05c.4.33.71.64,1,1.05l-3.48,2.22Z"/>
  <path d="M277.91,354.55c-.04.9-1.11,1.29-1.88,1.24-4.19-.32-8.23-.9-12.31-1.88-1.53-.37-2.73-1.43-3.88-2.29.45-.87.96-1.03,1.76-1.03l10.61.1,4.6.58c.6,1.04,1.15,2.06,1.1,3.28Z"/>
</svg>
